<?xml version="1.0" encoding="utf-8"?>
<!-- Generator: Adobe Illustrator 26.0.1, SVG Export Plug-In . SVG Version: 6.00 Build 0)  -->
<svg version="1.1" id="Layer_1" xmlns="http://www.w3.org/2000/svg" xmlns:xlink="http://www.w3.org/1999/xlink" x="0px" y="0px"
	 viewBox="0 0 914.87 283.89" style="enable-background:new 0 0 914.87 283.89;" xml:space="preserve">
<style type="text/css">
	.st0{fill:#009588;}
	.st1{fill:#F27021;}
	.st2{fill:#FFFFFF;}
</style>
<g>
	<polygon class="st0" points="323.26,15.2 352.58,15.2 371.01,100.42 396.09,15.2 423.29,15.2 446.86,98.6 468.62,15.2 496.12,15.2 
		464.69,131.24 431.45,131.24 409.69,50.25 387.03,131.24 352.88,131.24 	"/>
	<polygon class="st0" points="536.1,38.98 536.1,62.13 598.55,62.13 598.55,84.9 536.1,84.9 536.1,108.27 603.4,108.27 
		603.4,131.23 508.9,131.23 508.9,15.19 603.4,15.19 603.4,38.98 	"/>
	<path class="st1" d="M450.34,221.78c-5.35-7.08-12.24-9.8-14.96-10.72c2.6-1.33,6.72-3.88,10.27-8.47
		c6.18-7.98,6.39-16.71,6.34-19.65c-0.19-2.79-1.25-13.4-9.97-22.04c-11.05-10.94-25.42-9.87-27.51-9.68h-77.97v125.72h77.97
		c1.89,0.21,20.29,2.15,32.76-11.65c7.95-8.81,9.04-19.03,9.23-22.51C456.71,240.22,457.02,230.63,450.34,221.78z M414.53,177.51
		c0.54,0.02,4.02,0.24,6.49,3.22c2.25,2.72,2.04,5.82,1.96,6.44c0.07,1.16,0.14,4.76-2.25,8.31c-2.15,3.22-5.09,4.54-6.2,4.99
		h-48.36v-22.96H414.53z M424.94,245.64c-3.91,4.76-9.99,4.14-10.42,4.1h-48.36v-25.4h48.36c0.97,0.02,5.3,0.21,8.9,3.67
		c3.36,3.27,3.86,7.24,3.95,8.28C427.5,236.98,428.23,241.69,424.94,245.64z"/>
	<path class="st0" d="M725.38,80.09c-4.91-6.5-11.23-9-13.73-9.84c2.39-1.22,6.17-3.56,9.43-7.78c5.67-7.32,5.87-15.34,5.82-18.04
		c-0.17-2.56-1.15-12.3-9.15-20.23c-10.15-10.04-23.34-9.06-25.25-8.89h-71.58v115.41h71.58c1.74,0.2,18.62,1.98,30.08-10.69
		c7.3-8.08,8.3-17.47,8.48-20.67C731.22,97.01,731.5,88.21,725.38,80.09z M692.5,39.45c0.5,0.02,3.69,0.22,5.95,2.96
		c2.06,2.5,1.87,5.35,1.8,5.91c0.07,1.06,0.13,4.37-2.06,7.63c-1.98,2.96-4.67,4.17-5.69,4.59h-44.4V39.45H692.5z M702.06,101.99
		c-3.59,4.37-9.17,3.8-9.56,3.76h-44.4V82.43h44.4c0.89,0.02,4.87,0.2,8.17,3.37c3.09,3,3.54,6.65,3.63,7.61
		C704.41,94.04,705.08,98.36,702.06,101.99z"/>
	<polygon class="st1" points="532.67,237 532.67,238.35 531.49,237.07 	"/>
	<path class="st1" d="M563.09,235.2c4.26-1.33,11.95-4.38,18.84-11.46c11.79-12.05,12.69-26.99,12.81-30.94
		c0.07-2.41,0.31-18.72-12.9-31.01c-12.66-11.76-28.07-10.89-30.63-10.7h-76.55v126.05h29.42v-38.8h28.6l-1.18-1.28l1.18-0.07v1.35
		l34.25,36.67h33.45L563.09,235.2z M504.07,213.16v-34.44h47.13c1.51,0.09,5.33,0.57,8.88,3.41c5.16,4.17,5.75,10.18,5.85,11.29
		c0.17,0.9,1.47,8.59-3.95,14.42c-3.48,3.79-7.84,4.69-9.35,4.92c-6.65,0.14-13.3,0.26-19.95,0.4H504.07z"/>
	<polygon class="st1" points="532.67,237 532.67,238.35 531.49,237.07 	"/>
	<rect x="614.67" y="151.01" class="st1" width="29.82" height="126.14"/>
	<polygon class="st1" points="792.77,276.22 754.9,276.22 699.08,218.04 699.08,277.15 669.28,277.15 669.28,151 699.08,151 
		699.08,207.22 751.68,151.92 786.12,151.92 729.17,211.62 	"/>
	<path class="st1" d="M877.17,251.24c2.48-1.5,6.45-3.98,7.66-8.66c1.52-5.89-2.43-11.04-2.62-11.28
		c-4.1-5.19-10.72-4.88-25.99-5.84c-17.31-1.09-26.12-1.69-33.44-4.43c-6.42-2.4-15.98-5.98-20.95-15.31
		c-4.27-8.02-3.76-17.67-3.6-20.78c0.12-2.3,0.23-4.98,1.17-8.09c2.07-6.84,6.9-12.84,14.47-18.01
		c10.43-7.12,23.76-10.67,39.98-10.67c17.06,0,30.9,3.68,41.52,11.02c10.62,7.35,16.45,20.79,16.45,32.23l-26.79-0.4
		c0.06-1.49-0.16-3.65-1.07-5.99c-4.98-12.79-25.6-12.24-32.17-12.19c-8.52,0.06-18.83,0.79-23.42,7.1
		c-2.02,2.78-3.02,7.47-1.36,11.48c1.69,4.06,5.58,5.84,8.46,7.15c4.47,2.04,8.23,2.22,12.45,2.48c6.33,0.38,12.64,1.15,18.98,1.45
		c12.8,0.62,23.09,1.06,32.03,7.25c0.72,0.5,15.3,10.96,15.92,28.61c0.29,8.32-2.65,14.64-3.83,16.92
		c-4.09,7.91-10.15,11.98-13.7,14.3c-14,9.16-28.91,8.94-42.63,8.75c-9.06-0.13-19.55-0.38-31.99-5.34
		c-7.39-2.95-15.69-6.26-21.76-14.91c-5.93-8.44-6.56-17.45-6.57-21.74c9.4,0.07,18.8,0.13,28.2,0.2c0.89,3.11,2.87,8.15,7.45,12.09
		c5.47,4.7,11.47,5.1,22.76,5.84C862.99,255.13,870.12,255.51,877.17,251.24z"/>
	<path class="st2" d="M127.61-0.01l47.12,0c3.05,0,5.53,2.47,5.53,5.53v85h-58.17v-85C122.08,2.47,124.56-0.01,127.61-0.01z"/>
	<path class="st2" d="M202.29,179.55c-7.45,7.71-15.27,18.4-23.19,29.28c-9.99,13.74-17.52,26.89-23.19,38.4h-0.17v-59.9
		c4.99-1.74,8.56-6.5,8.56-12.12c0-7.1-5.75-12.85-12.85-12.85s-12.85,5.75-12.85,12.85c0,5.65,3.63,10.44,8.67,12.15v59.77
		c-5.61-10.18-12.17-20.99-19.79-32.19c-9.1-13.36-18.29-25.14-27.06-35.4c4.67-6.49,10.08-15.21,14.7-26.16
		c4.59-10.86,7.06-20.77,8.46-28.6h55.21c1.92,9.31,5.21,20.87,11.12,33.39C193.87,166.58,198.21,173.69,202.29,179.55z"/>
	<path class="st2" d="M99.39,259.76v24.13c0,0,1.5,0-18.74,0c-48.49,0.04-41.76-46.48-41.76-46.48s0-21.46,0-49.73
		c0-7.61-1.45-15.48-7.49-21.3c-5.2-5.01-11.88-10.18-15.82-10.52H0v-18.99c5.11,0,10.23,0,15.34,0c21.96-1.3,23.55-41.6,23.55-41.6
		V37.81C40.14-5.1,81.82,0.25,81.82,0.25h17.24v23.93c0,0-11.18-0.11-20.85,0c-14.03,0.16-13.94,13.62-13.94,13.62s0,15.32,0,57.45
		c0,42.13-15.83,48.11-20,49.99c20.67,14.49,20,42.43,20,42.43s0,28.02,0,49.73s12.44,22.35,12.44,22.35H99.39z"/>
	<path class="st2" d="M187.04,118.12h-71.59c-1.09,0-1.97-0.88-1.97-1.97V99.32c0-1.09,0.88-1.97,1.97-1.97h71.59
		c1.09,0,1.97,0.88,1.97,1.97v16.83C189.01,117.23,188.13,118.12,187.04,118.12z"/>
	<path class="st2" d="M203.38,259.76v24.13c0,0-1.5,0,18.74,0c48.49,0.04,41.76-46.48,41.76-46.48s0-21.46,0-49.73
		c0-7.61,1.45-15.48,7.49-21.3c5.2-5.01,11.88-10.18,15.82-10.52h15.58v-18.99c-5.11,0-10.23,0-15.34,0
		c-21.96-1.3-23.55-41.6-23.55-41.6V37.81c-1.24-42.9-42.92-37.55-42.92-37.55h-17.24v23.93c0,0,11.18-0.11,20.85,0
		c14.03,0.16,13.94,13.62,13.94,13.62s0,15.32,0,57.45c0,42.13,15.83,48.11,20,49.99c-20.67,14.49-20,42.43-20,42.43
		s0,28.02,0,49.73s-12.44,22.35-12.44,22.35H203.38z"/>
	<rect x="137.53" y="257.06" class="st1" width="27.79" height="27.79"/>
	<path class="st1" d="M130.89,116.12l-13.56,0c-0.86,0-1.56-0.7-1.56-1.56v-13.34c0-0.86,0.7-1.56,1.56-1.56h13.56
		c0.86,0,1.56,0.7,1.56,1.56v13.34C132.45,115.42,131.75,116.12,130.89,116.12z"/>
</g>
</svg>
