<svg width="192" height="192" viewBox="0 0 192 192" fill="none" xmlns="http://www.w3.org/2000/svg">
<path d="M128 24C123.757 24 119.687 25.6857 116.686 28.6863C113.686 31.6869 112 35.7565 112 40V88C112 92.2435 113.686 96.3131 116.686 99.3137C119.687 102.314 123.757 104 128 104C130.122 104 132.157 104.843 133.657 106.343C135.157 107.843 136 109.878 136 112V120C136 124.243 134.314 128.313 131.314 131.314C128.313 134.314 124.243 136 120 136C117.878 136 115.843 136.843 114.343 138.343C112.843 139.843 112 141.878 112 144V160C112 162.122 112.843 164.157 114.343 165.657C115.843 167.157 117.878 168 120 168C132.73 168 144.939 162.943 153.941 153.941C162.943 144.939 168 132.73 168 120V40C168 35.7565 166.314 31.6869 163.314 28.6863C160.313 25.6857 156.243 24 152 24H128Z" stroke="white" stroke-width="12" stroke-linecap="round" stroke-linejoin="round"/>
<path d="M40 24C35.7565 24 31.6869 25.6857 28.6863 28.6863C25.6857 31.6869 24 35.7565 24 40V88C24 92.2435 25.6857 96.3131 28.6863 99.3137C31.6869 102.314 35.7565 104 40 104C42.1217 104 44.1566 104.843 45.6569 106.343C47.1571 107.843 48 109.878 48 112V120C48 124.243 46.3143 128.313 43.3137 131.314C40.3131 134.314 36.2435 136 32 136C29.8783 136 27.8434 136.843 26.3431 138.343C24.8429 139.843 24 141.878 24 144V160C24 162.122 24.8429 164.157 26.3431 165.657C27.8434 167.157 29.8783 168 32 168C44.7304 168 56.9394 162.943 65.9411 153.941C74.9429 144.939 80 132.73 80 120V40C80 35.7565 78.3143 31.6869 75.3137 28.6863C72.3131 25.6857 68.2435 24 64 24H40Z" stroke="white" stroke-width="12" stroke-linecap="round" stroke-linejoin="round"/>
</svg>
